Normalized EMG Linear Envelopes
nRows=27
nColumns=17

endheader
time	        VM	        VL	        RF	       GRA	        TA	   ADDLONG	   SEMIMEM	      BFLH	        GM	        GL	       TFL	   GLUTMAX	   GLUTMED	      PIRI	    OBTINT	        QF	
2.156	  0.035776	  0.114758	  0.282303	  0.312473	  0.497159	  0.133378	  0.097319	  0.053544	  0.040046	  0.040147	  0.288277	  0.010707	  0.051433	  0.202260	  0.578387	  0.060472	
2.1565	  0.036014	  0.114915	  0.284236	  0.309030	  0.498179	  0.132623	  0.096193	  0.053041	  0.039569	  0.039808	  0.289345	  0.010782	  0.050806	  0.202648	  0.577621	  0.060190	
2.157	  0.036255	  0.115069	  0.286195	  0.305591	  0.499141	  0.131868	  0.095066	  0.052536	  0.039110	  0.039480	  0.290437	  0.010856	  0.050191	  0.203057	  0.576808	  0.059909	
2.1575	  0.036499	  0.115218	  0.288182	  0.302157	  0.500044	  0.131114	  0.093937	  0.052028	  0.038669	  0.039161	  0.291551	  0.010929	  0.049590	  0.203487	  0.575945	  0.059629	
2.158	  0.036748	  0.115363	  0.290197	  0.298728	  0.500886	  0.130362	  0.092807	  0.051519	  0.038245	  0.038853	  0.292686	  0.011001	  0.049002	  0.203936	  0.575029	  0.059352	
2.1585	  0.036999	  0.115504	  0.292241	  0.295304	  0.501668	  0.129612	  0.091676	  0.051008	  0.037838	  0.038554	  0.293841	  0.011072	  0.048426	  0.204403	  0.574057	  0.059075	
2.159	  0.037255	  0.115640	  0.294315	  0.291888	  0.502389	  0.128863	  0.090546	  0.050497	  0.037447	  0.038263	  0.295016	  0.011141	  0.047864	  0.204888	  0.573027	  0.058801	
2.1595	  0.037514	  0.115773	  0.296419	  0.288478	  0.503048	  0.128118	  0.089416	  0.049984	  0.037072	  0.037982	  0.296209	  0.011209	  0.047314	  0.205389	  0.571938	  0.058528	
2.16	  0.037776	  0.115902	  0.298556	  0.285076	  0.503644	  0.127376	  0.088288	  0.049471	  0.036712	  0.037710	  0.297419	  0.011276	  0.046777	  0.205905	  0.570790	  0.058257	
2.1605	  0.038043	  0.116027	  0.300725	  0.281682	  0.504176	  0.126639	  0.087161	  0.048957	  0.036367	  0.037445	  0.298645	  0.011342	  0.046253	  0.206436	  0.569581	  0.057988	
2.161	  0.038313	  0.116148	  0.302926	  0.278297	  0.504644	  0.125905	  0.086036	  0.048444	  0.036036	  0.037189	  0.299886	  0.011406	  0.045742	  0.206979	  0.568311	  0.057721	
2.1615	  0.038587	  0.116267	  0.305163	  0.274921	  0.505047	  0.125177	  0.084913	  0.047931	  0.035719	  0.036939	  0.301139	  0.011469	  0.045243	  0.207535	  0.566981	  0.057456	
2.162	  0.038864	  0.116382	  0.307434	  0.271555	  0.505384	  0.124454	  0.083794	  0.047419	  0.035415	  0.036697	  0.302404	  0.011531	  0.044757	  0.208101	  0.565591	  0.057192	
2.1625	  0.039146	  0.116494	  0.309741	  0.268200	  0.505655	  0.123737	  0.082678	  0.046908	  0.035124	  0.036462	  0.303680	  0.011591	  0.044284	  0.208677	  0.564140	  0.056931	
2.163	  0.039431	  0.116604	  0.312084	  0.264856	  0.505859	  0.123026	  0.081567	  0.046398	  0.034845	  0.036234	  0.304964	  0.011650	  0.043822	  0.209262	  0.562630	  0.056672	
2.1635	  0.039720	  0.116711	  0.314466	  0.261524	  0.505994	  0.122321	  0.080460	  0.045890	  0.034578	  0.036011	  0.306255	  0.011707	  0.043373	  0.209854	  0.561061	  0.056415	
2.164	  0.040013	  0.116816	  0.316887	  0.258204	  0.506061	  0.121624	  0.079357	  0.045384	  0.034321	  0.035795	  0.307551	  0.011763	  0.042937	  0.210454	  0.559436	  0.056159	
2.1645	  0.040309	  0.116919	  0.319348	  0.254898	  0.506059	  0.120935	  0.078261	  0.044881	  0.034075	  0.035583	  0.308851	  0.011818	  0.042512	  0.211059	  0.557754	  0.055906	
2.165	  0.040610	  0.117020	  0.321850	  0.251607	  0.505989	  0.120254	  0.077169	  0.044379	  0.033839	  0.035377	  0.310154	  0.011871	  0.042099	  0.211669	  0.556019	  0.055654	
2.1655	  0.040914	  0.117119	  0.324394	  0.248330	  0.505849	  0.119581	  0.076084	  0.043881	  0.033613	  0.035177	  0.311457	  0.011923	  0.041698	  0.212284	  0.554230	  0.055404	
2.166	  0.041223	  0.117218	  0.326980	  0.245070	  0.505642	  0.118917	  0.075006	  0.043385	  0.033396	  0.034980	  0.312760	  0.011973	  0.041310	  0.212902	  0.552390	  0.055155	
2.1665	  0.041535	  0.117316	  0.329610	  0.241826	  0.505366	  0.118263	  0.073934	  0.042893	  0.033187	  0.034788	  0.314060	  0.012022	  0.040932	  0.213523	  0.550501	  0.054908	
2.167	  0.041851	  0.117414	  0.332284	  0.238601	  0.505022	  0.117618	  0.072870	  0.042404	  0.032986	  0.034601	  0.315356	  0.012069	  0.040567	  0.214146	  0.548564	  0.054662	
2.1675	  0.042171	  0.117511	  0.335002	  0.235393	  0.504610	  0.116984	  0.071813	  0.041919	  0.032793	  0.034417	  0.316646	  0.012115	  0.040212	  0.214771	  0.546582	  0.054417	
2.168	  0.042495	  0.117609	  0.337765	  0.232206	  0.504131	  0.116361	  0.070764	  0.041437	  0.032607	  0.034236	  0.317930	  0.012160	  0.039869	  0.215397	  0.544557	  0.054174	
2.1685	  0.042823	  0.117708	  0.340573	  0.229039	  0.503585	  0.115748	  0.069723	  0.040959	  0.032428	  0.034059	  0.319205	  0.012204	  0.039538	  0.216023	  0.542492	  0.053932	
2.169	  0.043155	  0.117809	  0.343427	  0.225893	  0.502971	  0.115146	  0.068690	  0.040486	  0.032255	  0.033885	  0.320469	  0.012246	  0.039217	  0.216648	  0.540390	  0.053691	
